<?xml version="1.0" standalone="no"?><!DOCTYPE svg PUBLIC "-//W3C//DTD SVG 1.1//EN" "http://www.w3.org/Graphics/SVG/1.1/DTD/svg11.dtd"><svg t="1682303609669" class="icon" viewBox="0 0 1024 1024" version="1.1" xmlns="http://www.w3.org/2000/svg" p-id="4771" width="300" height="300" xmlns:xlink="http://www.w3.org/1999/xlink"><path d="M47.3 892.3c-12.1 0-22.8-7.4-26.7-18.5-3.8-10.9 0-22.9 9.4-29.9 96.8-72.5 100.6-196.6 94.5-328.9-0.7-1.9-1.2-3.9-1.3-6l-0.3-3.9c-2.4-36.6-4.9-74.5-3.7-112.2 1.7-53.5 12.6-102 32.2-144 22.2-47.3 55.2-85.5 98.1-113.7 11.3-7.4 24.7-11.5 38.7-11.8l529.3-12.5c12.4-0.3 23.4 7.1 27.4 18.5 3.8 10.9 0 22.9-9.4 29.9-64 48-93.7 121.6-96.3 238.8-0.2 11-9.4 19.8-20.4 19.6-11-0.2-19.8-9.4-19.6-20.4 1.3-59.4 8.7-106.1 23.2-147 13.9-39 33.9-71.5 60.9-98.5l-494.1 11.6c-6.4 0.2-12.7 2-17.7 5.3-88.7 58.1-110 154.7-112.3 225.5-1.1 35 1.2 71 3.4 106 0.9 2.1 1.4 4.3 1.5 6.7 3.1 65.3 5.1 134.4-8 198.5-12.4 60.6-36.7 108.8-74 146.2L576.3 840c6.4-0.2 12.7-2 17.7-5.3 14.5-9.5 27.8-20.5 39.6-32.7 7.7-7.9 20.3-8.1 28.3-0.4 7.9 7.7 8.1 20.3 0.4 28.3-13.8 14.3-29.4 27.1-46.4 38.3-11.3 7.4-24.7 11.5-38.7 11.8L48 892.3h-0.7z" fill="#e6e6e6" p-id="4772"></path><path d="M270.9 369.3v-12c3.5-3.1 7.1-6.1 10.7-9.1 3.6-2.9 7.6-6.1 12.1-9.5 4.4-3.4 9-6.7 13.7-9.8 4.7-3.1 10.1-6.3 16.2-9.7 5.4 7.8 8 15.3 8 22.4 0 3.9-0.8 8.2-2.5 13-1.7 4.8-3.9 10.2-6.8 16.4-2.9 6.1-6.5 13.8-10.8 23.1-11.5 25.4-20.1 46.4-25.8 63-5.7 16.5-8.6 27.8-8.6 33.7 0 0.5 0.3 2.4 1 5.7 0.7 3.3 1 5.8 1 7.5 0 2.8-0.8 4.3-2.4 4.5-1.6 0.2-3.9-0.4-6.8-1.8-7.5-3.7-12.5-7.2-15.1-10.5-2.5-3.3-3.8-7.6-3.8-12.9 0-9.5 3.5-24.1 10.4-44 3.5-10 7.6-20 12.3-30 4.7-9.9 9.9-20 15.6-30.2 5.7-10.2 11.1-19.6 16.2-28.2-11 4.7-22.5 10.8-34.6 18.4zM452.4 339.3c4.6 2 7.9 5.4 10 10 2.1 4.6 3.1 11.5 3.1 20.5 0 13.7-2.8 28.6-8.3 44.5-5.5 15.9-13.2 30.8-23.1 44.8-9.9 13.9-21.2 25.4-34 34.5-14.3 10.1-26.1 15.2-35.2 15.2-7.1 0-13.8-2.1-20-6.4-6.2-4.3-11.2-10.4-14.9-18.4-3.7-7.9-5.6-17.2-5.6-27.9 0-14.8 4.1-30.4 12.2-46.7 8.1-16.3 18.5-31.1 31-44.2 12.5-13.2 25.6-23.3 39.2-30.4 13.6-7.1 25.3-9.6 35-7.5 6.4 1.4 9.9 5.4 10.6 12zM418.7 368l5.1-10.7c-5.8 2.9-10.8 5.8-15.2 8.6-4.4 2.8-9.4 6.8-15.1 12-5.7 5.2-11.7 11.7-17.9 19.5-10.1 13-17.8 25.5-23 37.7-5.2 12.1-7.8 22.5-7.8 30.9 0 12.2 4.1 18.3 12.3 18.3 4.7 0 11.4-2.5 20.1-7.6 8.7-5.1 18-12 27.7-20.9 9.4-8.6 17.6-18.2 24.6-28.8 7.1-10.6 12.5-21.1 16.2-31.4 3.8-10.3 5.6-19.2 5.6-26.5 0-4.7-1-8.3-3.1-10.9-2-2.6-4.6-3.9-7.8-3.9-2.9 0-6 1.1-9.3 3.4-3 2.2-7.2 5.6-12.4 10.3zM583.6 339.3c4.6 2 7.9 5.4 10 10 2.1 4.6 3.1 11.5 3.1 20.5 0 13.7-2.8 28.6-8.3 44.5-5.5 15.9-13.2 30.8-23.1 44.8-9.9 13.9-21.2 25.4-34 34.5-14.3 10.1-26.1 15.2-35.2 15.2-7.1 0-13.8-2.1-20-6.4-6.2-4.3-11.2-10.4-14.9-18.4-3.7-7.9-5.6-17.2-5.6-27.9 0-14.8 4.1-30.4 12.2-46.7 8.1-16.3 18.5-31.1 31-44.2 12.5-13.2 25.6-23.3 39.2-30.4 13.6-7.1 25.3-9.6 35-7.5 6.4 1.4 9.9 5.4 10.6 12zM549.9 368l5.1-10.7c-5.8 2.9-10.8 5.8-15.2 8.6-4.4 2.8-9.4 6.8-15.1 12-5.7 5.2-11.7 11.7-17.9 19.5-10.1 13-17.8 25.5-23 37.7-5.2 12.1-7.8 22.5-7.8 30.9 0 12.2 4.1 18.3 12.3 18.3 4.7 0 11.4-2.5 20.1-7.6 8.7-5.1 18-12 27.7-20.9 9.4-8.6 17.6-18.2 24.6-28.8 7.1-10.6 12.5-21.1 16.2-31.4 3.8-10.3 5.6-19.2 5.6-26.5 0-4.7-1-8.3-3.1-10.9-2-2.6-4.6-3.9-7.8-3.9-2.9 0-6 1.1-9.3 3.4-3 2.2-7.2 5.6-12.4 10.3z" fill="#e6e6e6" p-id="4773"></path><path d="M342.3 595c-26.8-1.2 117.5-39.2 131-36.5 0 0.1-55.4 39.9-131 36.5zM187 764.4c21.6-14.9 268.7-149.9 491.5-163.4" fill="#e6e6e6" p-id="4774"></path><path d="M806.4 798.7c-90.5 0-164.1-73.6-164.1-164.1s73.7-164 164.1-164 164.1 73.6 164.1 164.1-73.6 164-164.1 164z m0-288.1c-68.4 0-124.1 55.7-124.1 124.1s55.7 124 124.1 124S930.5 703 930.5 634.6s-55.7-124-124.1-124z" fill="#e6e6e6" p-id="4775"></path><path d="M992.1 835.7c-5.1 0-10.2-2-14.1-5.9l-83.3-83.3c-7.8-7.8-7.8-20.5 0-28.3 7.8-7.8 20.5-7.8 28.3 0l83.3 83.3c7.8 7.8 7.8 20.5 0 28.3-3.9 4-9 5.9-14.2 5.9z" fill="#e6e6e6" p-id="4776"></path></svg>